<svg width="19" height="5" viewBox="0 0 19 5" fill="none" xmlns="http://www.w3.org/2000/svg">
<path d="M0 2.08331C0 0.937404 0.937404 0 2.08331 0C3.22903 0 4.16662 0.937404 4.16662 2.08331C4.16662 3.22922 3.22903 4.16662 2.08331 4.16662C0.937404 4.16662 0 3.22922 0 2.08331ZM9.375 4.16662C10.5209 4.16662 11.4583 3.22922 11.4583 2.08331C11.4583 0.937404 10.5209 0 9.375 0C8.22909 0 7.29169 0.937404 7.29169 2.08331C7.29169 3.22922 8.22909 4.16662 9.375 4.16662ZM16.6667 4.16662C17.8126 4.16662 18.75 3.22922 18.75 2.08331C18.75 0.937404 17.8126 0 16.6667 0C15.521 0 14.5834 0.937404 14.5834 2.08331C14.5834 3.22922 15.521 4.16662 16.6667 4.16662Z" fill="#63686B"/>
</svg>
